<svg width="189" height="189" viewBox="0 0 189 189" fill="none" xmlns="http://www.w3.org/2000/svg">
<circle cx="94" cy="94" r="94" fill="#1A1C2F"/>
<mask id="mask0_108_94" style="mask-type:alpha" maskUnits="userSpaceOnUse" x="0" y="0" width="189" height="189">
<circle cx="94.5" cy="94.5" r="94.5" fill="#E8E8E8"/>
</mask>
<g mask="url(#mask0_108_94)">
<path d="M-330.775 114.571C-354.133 113.832 -388.436 98.5541 -388.436 98.5541V378.587H188.175V98.5541C188.175 98.5541 160.814 84.4867 141.725 82.5371C105.308 78.8178 90.2204 115.729 53.6322 114.571C30.2733 113.832 -4.02881 98.5541 -4.02881 98.5541C-4.02881 98.5541 -31.3896 84.4867 -50.478 82.5371C-86.895 78.8178 -101.983 115.729 -138.571 114.571C-161.93 113.832 -196.232 98.5541 -196.232 98.5541C-196.232 98.5541 -223.593 84.4867 -242.681 82.5371C-279.098 78.8178 -294.186 115.729 -330.775 114.571Z" fill="#004F9D"/>
<path d="M-237.906 113.216C-261.265 112.477 -295.567 97.1989 -295.567 97.1989V377.232H281.043V97.1989C281.043 97.1989 253.682 83.1314 234.594 81.1819C198.177 77.4626 183.089 114.373 146.5 113.216C123.141 112.477 88.8394 97.1989 88.8394 97.1989C88.8394 97.1989 61.4786 83.1314 42.3902 81.1819C5.97314 77.4626 -9.11481 114.373 -45.703 113.216C-69.062 112.477 -103.364 97.1989 -103.364 97.1989C-103.364 97.1989 -130.725 83.1314 -149.813 81.1819C-186.23 77.4626 -201.318 114.373 -237.906 113.216Z" fill="url(#paint0_linear_108_94)"/>
</g>
<defs>
<linearGradient id="paint0_linear_108_94" x1="-7.26231" y1="80.9184" x2="90.1655" y2="262.068" gradientUnits="userSpaceOnUse">
<stop offset="0.336554" stop-color="#69EAEF"/>
<stop offset="1" stop-color="#2977C5" stop-opacity="0"/>
</linearGradient>
</defs>
</svg>
